<?xml version="1.0" encoding="iso-8859-1"?>
<!-- Generator: Adobe Illustrator 21.0.0, SVG Export Plug-In . SVG Version: 6.00 Build 0)  -->
<svg xmlns="http://www.w3.org/2000/svg" xmlns:xlink="http://www.w3.org/1999/xlink" version="1.1" id="Capa_1" x="0px" y="0px" viewBox="0 0 512 512" style="enable-background:new 0 0 512 512;" xml:space="preserve" width="512" height="512">
<g>
	<path style="fill:#546E7A;" d="M355.334,504.5H156.666c-8.376,0-15.166-6.79-15.166-15.166V140.666   c0-8.376,6.79-15.166,15.166-15.166h198.668c8.376,0,15.166,6.79,15.166,15.166v348.668C370.5,497.71,363.71,504.5,355.334,504.5z"/>
	<path style="fill:#455A64;" d="M355.334,125.5h-30c8.376,0,15.166,6.79,15.166,15.166v348.668c0,8.376-6.79,15.166-15.166,15.166   h30c8.376,0,15.166-6.79,15.166-15.166V140.666C370.5,132.29,363.71,125.5,355.334,125.5z"/>
	<path style="fill:#FFD740;" d="M171.5,472.5v-315c0-1.105,0.895-2,2-2h165c1.105,0,2,0.895,2,2v315c0,1.105-0.895,2-2,2h-165   C172.395,474.5,171.5,473.605,171.5,472.5z"/>
	<path style="fill:#FFC400;" d="M338.5,155.5h-30c1.105,0,2,0.895,2,2v315c0,1.105-0.895,2-2,2h30c1.105,0,2-0.895,2-2v-315   C340.5,156.395,339.605,155.5,338.5,155.5z"/>
	<g>
		<path style="fill:#ECEFF1;" d="M196.5,125.5h-27V76c0-7.456,6.044-13.5,13.5-13.5h0c7.456,0,13.5,6.044,13.5,13.5V125.5z"/>
		<path style="fill:#ECEFF1;" d="M342.5,125.5h-27V76c0-7.456,6.044-13.5,13.5-13.5l0,0c7.456,0,13.5,6.044,13.5,13.5V125.5z"/>
	</g>
	<path style="fill:#00EDD0;" d="M267.85,250.883l-42.022,44.705c-0.74,0.787-0.721,2.02,0.043,2.784l19.883,19.883   c0.467,0.467,0.673,1.134,0.552,1.783l-10.715,57.146c-0.353,1.881,1.884,3.135,3.305,1.854l55.04-49.626   c0.85-0.767,0.885-2.09,0.075-2.9l-23.895-23.895c-0.393-0.393-0.605-0.932-0.584-1.487l1.775-48.804   C271.374,250.479,269.116,249.536,267.85,250.883z"/>
	<path style="fill:#FF7043;" d="M192.5,237.5h-21v-44h21c5.523,0,10,4.477,10,10v24C202.5,233.023,198.023,237.5,192.5,237.5z"/>
	<path style="fill:#FF7043;" d="M192.5,435.5h-21v-44h21c5.523,0,10,4.477,10,10v24C202.5,431.023,198.023,435.5,192.5,435.5z"/>
	<path style="fill:#FF7043;" d="M319.5,237.5h21v-44h-21c-5.523,0-10,4.477-10,10v24C309.5,233.023,313.977,237.5,319.5,237.5z"/>
	<path style="fill:#FF7043;" d="M319.5,435.5h21v-44h-21c-5.523,0-10,4.477-10,10v24C309.5,431.023,313.977,435.5,319.5,435.5z"/>
	<g>
		<path d="M370.5,439.833c-4.142,0-7.5,3.358-7.5,7.5v42c0,4.227-3.439,7.666-7.666,7.666H156.666c-4.227,0-7.666-3.439-7.666-7.666    V193.5c0-4.142-3.358-7.5-7.5-7.5s-7.5,3.358-7.5,7.5v295.834C134,501.832,144.168,512,156.666,512h198.668    C367.832,512,378,501.832,378,489.334v-42C378,443.191,374.642,439.833,370.5,439.833z"/>
		<path d="M355.334,118H350V76c0-11.58-9.42-21-21-21s-21,9.42-21,21v42H204V76c0-11.58-9.42-21-21-21s-21,9.42-21,21v42h-5.334    C144.168,118,134,128.168,134,140.666V159.5c0,4.142,3.358,7.5,7.5,7.5s7.5-3.358,7.5-7.5v-18.834    c0-4.227,3.439-7.666,7.666-7.666h198.668c4.227,0,7.666,3.439,7.666,7.666v275c0,4.142,3.358,7.5,7.5,7.5s7.5-3.358,7.5-7.5v-275    C378,128.168,367.832,118,355.334,118z M177,118V76c0-3.309,2.691-6,6-6s6,2.691,6,6v42H177z M323,118V76c0-3.309,2.691-6,6-6    s6,2.691,6,6v42H323z"/>
		<path d="M224,482h114.5c5.238,0,9.5-4.262,9.5-9.5v-315c0-5.238-4.262-9.5-9.5-9.5h-165c-5.238,0-9.5,4.262-9.5,9.5v315    c0,5.238,4.262,9.5,9.5,9.5H192c4.142,0,7.5-3.358,7.5-7.5s-3.358-7.5-7.5-7.5h-13v-24h13.5c9.649,0,17.5-7.851,17.5-17.5v-24    c0-9.649-7.851-17.5-17.5-17.5H179V245h13.5c9.649,0,17.5-7.851,17.5-17.5v-24c0-9.649-7.851-17.5-17.5-17.5H179v-23h154v23h-13.5    c-9.649,0-17.5,7.851-17.5,17.5v24c0,9.649,7.851,17.5,17.5,17.5H333v139h-13.5c-9.649,0-17.5,7.851-17.5,17.5v24    c0,9.649,7.851,17.5,17.5,17.5H333v24H224c-4.142,0-7.5,3.358-7.5,7.5S219.858,482,224,482z M192.5,399c1.378,0,2.5,1.122,2.5,2.5    v24c0,1.378-1.122,2.5-2.5,2.5H179v-29H192.5z M192.5,201c1.378,0,2.5,1.122,2.5,2.5v24c0,1.378-1.122,2.5-2.5,2.5H179v-29H192.5z     M319.5,230c-1.378,0-2.5-1.122-2.5-2.5v-24c0-1.378,1.122-2.5,2.5-2.5H333v29H319.5z M319.5,428c-1.378,0-2.5-1.122-2.5-2.5v-24    c0-1.378,1.122-2.5,2.5-2.5H333v29H319.5z"/>
		<path d="M272.968,243.486c-3.69-1.54-7.843-0.653-10.582,2.259c0,0,0,0,0,0l-42.023,44.705c-3.537,3.763-3.447,9.572,0.205,13.224    l17.832,17.832l-10.18,54.295c-0.751,4.008,1.133,8.041,4.689,10.036c1.456,0.816,3.056,1.216,4.647,1.216    c2.296,0,4.573-0.833,6.363-2.445l55.041-49.627c1.925-1.736,3.067-4.218,3.134-6.81s-0.946-5.129-2.779-6.962l-22.2-22.2    l1.688-46.409C278.947,248.604,276.657,245.026,272.968,243.486z M284.612,327.719l-38.65,34.849l7.715-41.148    c0.578-3.084-0.401-6.25-2.62-8.468l-16.112-16.112l28.334-30.142l-1.242,34.156c-0.097,2.63,0.915,5.206,2.776,7.067    L284.612,327.719z"/>
		<path d="M188.254,41.74l17.194-11.468l15.894,8.791c2.666,1.476,5.962,1.189,8.335-0.723L256.04,17.1l26.275,21.234    c2.374,1.918,5.674,2.206,8.344,0.729l15.894-8.791l17.194,11.468c1.279,0.853,2.725,1.261,4.155,1.261    c2.423,0,4.801-1.172,6.247-3.339c2.298-3.446,1.368-8.103-2.078-10.401l-20.992-14c-2.333-1.555-5.338-1.681-7.792-0.323    l-15.47,8.557L260.807,1.667C259.472,0.588,257.716,0,256,0c-1.712,0-3.373,0.586-4.706,1.66l-27.104,21.838l-15.477-8.561    c-2.453-1.357-5.459-1.232-7.792,0.323l-20.992,14c-3.446,2.298-4.376,6.955-2.078,10.401    C180.152,43.107,184.809,44.038,188.254,41.74z"/>
	</g>
</g>















</svg>
