<svg id="Capa_1" enable-background="new 0 0 512.884 512.884" height="512" viewBox="0 0 512.884 512.884" width="512" xmlns="http://www.w3.org/2000/svg"><g><path d="m344.701 113.154h-70.62v115.04l7.938 28.06 27.352 15.564s30.707-18.71 30.514-19.289 4.756-14.315 4.756-14.315c-.01-12.23-.01-19.5-.01-19.5h.07z" fill="#d1a08f"/><path d="m344.702 29.425c0-12.109-9.816-21.925-21.924-21.925h-26.769c-12.109 0-21.924 9.816-21.924 21.925v63.6h70.618v-63.6z" fill="#d1a08f"/><path d="m430.999 147.994-3.05-46.771c-1.545-23.714-14.772-43.354-33.269-54.429l-8.245 2.727-33.047-1.09-4.179-10.606c-2.931.449-5.841 1.091-8.781 1.939l-73.11 21.111-.312 6.348-23.652 10.034-17.526-4.402-128.238 37.028c-21.32 6.16-21.05 36.46.37 42.25l134.681 36.351 11.435-2.772 27.598 9.013 2.404 4.944 70.562 19.045c6.672 1.801 13.311 2.552 19.777 2.387l4.604-8.27s25.074-8.945 25.294-8.872c.219.073 9.615 3.139 9.688 3.162 17.447-13.254 28.588-34.715 26.996-59.127z" fill="#ebebeb"/><path d="m344.661 327.824-8.379-20.698h-52.352l-9.849 20.698v166.76c0 5.964 4.835 10.8 10.8 10.8h49.018c5.965 0 10.801-4.834 10.8-10.799-.006-27.397-.022-102.025-.038-166.761z" fill="#d1a08f"/><g><path d="m344.701 199.674h-70.62v15.549 12.971l7.938 28.06 21.391 12.172v-33.145c0-6.121 5.812-10.573 11.722-8.978 0 0 28.194 7.565 29.506 7.854-.007-9.759-.007-15.443-.007-15.443h.07z" fill="#c68d7a"/><path d="m386.346 195.354-111.999-30.229-134.681-36.351c-12.914-3.491-18.128-15.888-15.569-26.536l-26.523 7.659c-21.32 6.16-21.05 36.46.37 42.25l134.681 36.351 11.435-2.772 27.598 9.013 2.404 4.944 70.562 19.045c6.672 1.801 13.311 2.552 19.777 2.387l4.604-8.27s25.074-8.945 25.294-8.872c.219.073 9.615 3.139 9.688 3.162 3.136-2.382 6.064-5.034 8.755-7.916-10.112-1.065-22.238-2.743-26.396-3.865z" fill="#e2e2e2"/><g><path d="m397.26 199.914-129.969-139.03-41.49 11.98 118.78 127.05z" fill="#f9f7f8"/></g><path d="m316.603 169.989 24.111-30.564-48.74-52.137-23.859 30.836z" fill="#efedef"/><path d="m281.619 190.118 113.062-143.324c-13.24-7.93-29.18-11.47-45.47-8.97l-105.025 135.738z" fill="#f9f7f8"/><path d="m181.695 111.147c4.143 0 7.5-3.357 7.5-7.5v-20.217l-15 4.332v15.886c0 4.142 3.358 7.499 7.5 7.499z" fill="#e2e2e2"/><g><path d="m222.592 135.28c-4.143 0-7.5-3.357-7.5-7.5v-4.548c0-4.143 3.357-7.5 7.5-7.5s7.5 3.357 7.5 7.5v4.548c0 4.143-3.358 7.5-7.5 7.5z" fill="#e2e2e2"/></g><path d="m151.419 166.565v-26.669c0-4.143-3.357-7.5-7.5-7.5s-7.5 3.357-7.5 7.5v22.62z" fill="#cecece"/><g><path d="m381.529 126.011c-4.143 0-7.5-3.357-7.5-7.5v-10.705c0-4.143 3.357-7.5 7.5-7.5s7.5 3.357 7.5 7.5v10.705c0 4.142-3.357 7.5-7.5 7.5z" fill="#e2e2e2"/></g><g><path d="m404.001 159.717c-4.143 0-7.5-3.357-7.5-7.5v-5.15c0-4.143 3.357-7.5 7.5-7.5s7.5 3.357 7.5 7.5v5.15c0 4.142-3.357 7.5-7.5 7.5z" fill="#e2e2e2"/></g><g id="XMLID_17_"><g><path d="m274.081 228.194v34.81l13.737 14.435 34.443-31.365z" fill="#e5e1e5"/><path d="m303.409 501.454v-194.328h-19.479l-9.849 20.698v166.76c0 5.965 4.835 10.8 10.8 10.8h19.277c-.477-1.219-.749-2.542-.749-3.93z" fill="#c68d7a"/><path d="m344.661 290.414-3.585-13.716h-58.708l-8.287 13.716v37.41h70.58c.01-13.02 0-25.65 0-37.41z" fill="#e5e1e5"/><path d="m303.409 239.078-29.328-10.884v34.81l13.737 14.435 15.591-14.198z" fill="#d7d0d6"/><path d="m344.641 238.214c.01 12.83.01 31.13.02 52.2h-70.58v-27.41l48.18-16.93z" fill="#f9f7f8"/></g></g><path d="m303.409 276.698h-21.042l-8.286 13.716v37.41h29.328z" fill="#d7d0d6"/><path d="m303.409 252.698-29.328 10.306v27.41h29.328z" fill="#efedef"/></g><g fill="#efedef"><path d="m296.59 171.124-22.245-6.005-19.555-5.278-22.168 28.651 41.44 11.19z"/><path d="m364.401 221.114c14.67-.38 28.43-5.5 39.6-13.99l-9.598-10.267c-3.509-.544-6.4-1.074-8.041-1.517l-61.601-16.626z"/></g></g><g><g><path d="m438.478 147.506-3.049-46.767c-1.508-23.124-13.249-44.025-32.213-57.344-15.064-10.579-33.08-15.24-51.014-13.49v-.48c0-16.225-13.2-29.425-29.425-29.425h-26.77c-16.225 0-29.424 13.2-29.424 29.425v23.854l-171.08 49.404c-13.037 3.765-21.384 14.964-21.265 28.532.118 13.568 8.66 24.621 21.761 28.157l73.064 19.721c3.994 1.08 8.114-1.287 9.195-5.287 1.079-3.999-1.288-8.115-5.287-9.195l-21.554-5.817v-18.896c0-4.143-3.357-7.5-7.5-7.5s-7.5 3.357-7.5 7.5v14.848l-36.511-9.854c-7.796-2.104-10.624-8.512-10.67-13.806s2.668-11.75 10.427-13.989l74.53-21.523v8.076c0 4.143 3.357 7.5 7.5 7.5s7.5-3.357 7.5-7.5v-12.41l34.272-9.897 45.191 48.341-38.887 50.257-25.343-6.84c-3.995-1.079-8.115 1.287-9.195 5.287-1.079 3.999 1.288 8.115 5.287 9.195l66.064 17.832v211.075c0 4.143 3.357 7.5 7.5 7.5s7.5-3.357 7.5-7.5v-81.169h55.618v170.062c0 4.143 3.357 7.5 7.5 7.5s7.5-3.357 7.5-7.5v-277.486c3.55.5 7.1.754 10.628.754 17.274 0 34.04-5.936 47.913-17.296 19.245-15.757 29.355-39.03 27.737-63.849zm-136.662-60.676-20.694-22.137 48.706-14.065zm-20.232-57.405c0-7.954 6.471-14.425 14.424-14.425h26.77c7.954 0 14.425 6.471 14.425 14.425v3.461l-55.618 16.061v-19.522zm-41.949 47.249 25.318-7.311 27.564 29.485-14.561 18.818zm91.2 63.163 61.63 65.927c-7.746 4.397-16.236 6.984-24.981 7.671l-51.364-54.945zm-49.251 99.138 18.602 6.908-18.602 6.537zm0 29.344 55.618-19.544v34.138h-55.618zm25.139-97.916 37.895 40.537-57.606-15.549zm30.479 54.073v8.399l-14.876 5.228-40.742-15.129v-13.51zm-55.618 95.845v-22.408h55.618v22.408zm123.011-123.546-64.363-68.851 15.158-19.215c2.565-3.252 2.009-7.968-1.244-10.533-3.251-2.565-7.968-2.009-10.533 1.244l-72.352 91.72-25.8-6.964 107.775-139.289c10.209-1.063 20.459.466 29.889 4.443l-19.653 24.914c-2.565 3.252-2.009 7.968 1.244 10.533 1.376 1.085 3.014 1.611 4.64 1.611 2.218 0 4.413-.979 5.894-2.855l21.004-26.626c14.242 10.727 23.041 26.932 24.206 44.809l3.049 46.767c1.202 18.425-5.661 35.778-18.914 48.292z"/><path d="m230.092 127.78v-4.548c0-4.143-3.357-7.5-7.5-7.5s-7.5 3.357-7.5 7.5v4.548c0 4.143 3.357 7.5 7.5 7.5s7.5-3.357 7.5-7.5z"/><path d="m381.529 100.306c-4.143 0-7.5 3.357-7.5 7.5v10.705c0 4.143 3.357 7.5 7.5 7.5s7.5-3.357 7.5-7.5v-10.705c0-4.143-3.357-7.5-7.5-7.5z"/><path d="m404.001 139.566c-4.143 0-7.5 3.357-7.5 7.5v5.15c0 4.143 3.357 7.5 7.5 7.5s7.5-3.357 7.5-7.5v-5.15c0-4.142-3.357-7.5-7.5-7.5z"/><path d="m274.084 440.953c-4.143 0-7.5 3.357-7.5 7.5v56.931c0 4.143 3.357 7.5 7.5 7.5s7.5-3.357 7.5-7.5v-56.931c0-4.142-3.357-7.5-7.5-7.5z"/></g></g></svg>