<?xml version="1.0" encoding="iso-8859-1"?>
<!-- Generator: Adobe Illustrator 19.0.0, SVG Export Plug-In . SVG Version: 6.00 Build 0)  -->
<svg version="1.1" id="Capa_1" xmlns="http://www.w3.org/2000/svg" xmlns:xlink="http://www.w3.org/1999/xlink" x="0px" y="0px"
	 viewBox="0 0 512 512" style="enable-background:new 0 0 512 512;" xml:space="preserve">
<path style="fill:#FF5440;" d="M258.7,7.52v496.96c136-1.44,245.8-112.14,245.8-248.48S394.7,8.96,258.7,7.52z"/>
<path style="fill:#FF804C;" d="M258.7,7.52c-0.9-0.01-1.8-0.02-2.7-0.02C118.76,7.5,7.5,118.76,7.5,256S118.76,504.5,256,504.5
	c0.9,0,1.8-0.01,2.7-0.02C372.6,502.76,464.5,392.17,464.5,256S372.6,9.24,258.7,7.52z"/>
<path style="fill:#401510;" d="M339.5,309.703h-15l-68.5,20l-68.5-20h-15c-8.25,0-15,6.75-15,15v60c0,8.25,6.75,15,15,15h15l68.5-20
	l68.5,20h15c8.25,0,15-6.75,15-15v-60C354.5,316.453,347.75,309.703,339.5,309.703z"/>
<path style="fill:#FFE7A3;" d="M324.5,339.703v-30h-30l-45,45l45,45h30v-30c0-8.25-6.75-15-15-15
	C317.75,354.703,324.5,347.953,324.5,339.703z"/>
<path style="fill:#FFFFFF;" d="M294.5,339.703v-30h-107v30c0,8.25,6.75,15,15,15c-8.25,0-15,6.75-15,15v30h107v-30
	c0-8.25-6.75-15-15-15C287.75,354.703,294.5,347.953,294.5,339.703z"/>
<path style="fill:#DEF1FF;" d="M157.5,211.203V278.7c28.99,0,52.5-23.5,52.5-52.5c0-0.184-0.012-0.365-0.014-0.548
	C185.837,223.793,171.666,217.499,157.5,211.203z"/>
<path style="fill:#FFFFFF;" d="M113.466,197.632c-5.347,8.224-8.466,18.03-8.466,28.568c0,29,23.51,52.5,52.5,52.5
	c12.43,0,22.5-23.5,22.5-52.5c0-2.085-0.058-4.138-0.159-6.16C156.99,212.893,143.489,201.591,113.466,197.632z"/>
<path style="fill:#0E2739;" d="M157.5,211.203c-8.27,0.002-14.997,6.73-14.997,15c0,8.271,6.729,15,15,15s15-6.729,15-15
	c0-3.996-1.581-7.623-4.137-10.314C164.638,214.374,161.068,212.789,157.5,211.203z"/>
<path style="fill:#DEF1FF;" d="M398.54,197.63c-9.27,1.22-16.97,3.14-23.85,5.43L354.5,278.7c28.99,0,52.5-23.5,52.5-52.5
	C407,215.66,403.88,205.86,398.54,197.63z"/>
<path style="fill:#FFFFFF;" d="M374.69,203.06c1.48,6.98,2.31,14.83,2.31,23.14c0,29-10.07,52.5-22.5,52.5
	c-28.99,0-52.5-23.5-52.5-52.5c0-0.18,0.01-0.36,0.01-0.55C337.11,222.95,351.12,210.88,374.69,203.06z"/>
<path style="fill:#0E2739;" d="M354.5,211.203c8.27,0.002,14.997,6.73,14.997,15c0,8.271-6.729,15-15,15s-15-6.729-15-15
	c0-3.996,1.581-7.623,4.137-10.314C347.362,214.374,350.932,212.789,354.5,211.203z"/>
<path d="M437.02,74.98C388.667,26.628,324.38,0,256,0S123.333,26.628,74.98,74.98S0,187.62,0,256s26.628,132.667,74.98,181.02
	S187.62,512,256,512s132.667-26.628,181.02-74.98S512,324.38,512,256S485.372,123.333,437.02,74.98z M256,497
	C123.112,497,15,388.888,15,256S123.112,15,256,15s241,108.112,241,241S388.888,497,256,497z"/>
<path d="M339.5,302.203h-167c-12.407,0-22.5,10.093-22.5,22.5v60c0,12.407,10.093,22.5,22.5,22.5h167
	c12.407,0,22.5-10.093,22.5-22.5v-60C362,312.296,351.907,302.203,339.5,302.203z M317,339.703c0,4.136-3.364,7.5-7.5,7.5h-77
	c-4.142,0-7.5,3.358-7.5,7.5s3.358,7.5,7.5,7.5h77c4.136,0,7.5,3.364,7.5,7.5v22.5H195v-22.5c0-4.136,3.364-7.5,7.5-7.5
	c4.142,0,7.5-3.358,7.5-7.5s-3.358-7.5-7.5-7.5c-4.136,0-7.5-3.364-7.5-7.5v-22.5h122V339.703z M165,384.703v-60
	c0-4.136,3.364-7.5,7.5-7.5h7.5v22.5c0,5.757,2.174,11.017,5.743,15c-3.569,3.983-5.743,9.243-5.743,15v22.5h-7.5
	C168.364,392.203,165,388.838,165,384.703z M347,384.703c0,4.136-3.364,7.5-7.5,7.5H332v-22.5c0-5.758-2.177-11.016-5.747-15
	c3.571-3.984,5.747-9.242,5.747-15v-22.5h7.5c4.136,0,7.5,3.364,7.5,7.5V384.703z"/>
<path d="M217.033,233.555c2.558,0.093,5.203,0.147,7.967,0.147c12.407,0,22.5-10.093,22.5-22.5v-15c0-4.142-3.358-7.5-7.5-7.5
	s-7.5,3.358-7.5,7.5v15c0,4.136-3.364,7.5-7.5,7.5c-5.144,0-9.862-0.18-14.234-0.51c-0.017-0.002-0.035-0.003-0.052-0.004
	c-22.93-1.738-36.226-7.643-50.168-13.839c-17.308-7.692-35.204-15.646-70.546-15.646c-4.142,0-7.5,3.358-7.5,7.5s3.358,7.5,7.5,7.5
	c4.184,0,8.083,0.12,11.748,0.342c-2.792,7.01-4.248,14.51-4.248,22.158c0,33.084,26.916,60,60,60
	C188.093,286.203,213.394,263.181,217.033,233.555z M165.003,226.203c0,4.136-3.364,7.5-7.5,7.5s-7.5-3.364-7.5-7.5
	c0-3.685,2.675-6.752,6.184-7.377c2.484,1.101,4.993,2.202,7.573,3.279C164.566,223.321,165.003,224.736,165.003,226.203z
	 M112.5,226.203c0-7.138,1.683-14.105,4.895-20.401c8.779,1.495,16.022,3.679,22.676,6.194c-3.166,3.877-5.068,8.823-5.068,14.206
	c0,12.407,10.093,22.5,22.5,22.5c11.831,0,21.552-9.181,22.429-20.792c6.463,1.893,13.683,3.467,22.131,4.494
	c-3.032,21.887-21.854,38.798-44.562,38.798C132.687,271.203,112.5,251.016,112.5,226.203z"/>
<path d="M263.5,422.203h-15c-4.142,0-7.5,3.358-7.5,7.5s3.358,7.5,7.5,7.5h15c4.142,0,7.5-3.358,7.5-7.5
	S267.642,422.203,263.5,422.203z"/>
<path d="M422,188.703c-35.342,0-53.238,7.954-70.546,15.646c-16.608,7.381-32.296,14.354-64.454,14.354c-4.136,0-7.5-3.364-7.5-7.5
	v-15c0-4.142-3.358-7.5-7.5-7.5s-7.5,3.358-7.5,7.5v15c0,12.407,10.093,22.5,22.5,22.5c2.763,0,5.409-0.054,7.967-0.147
	c3.639,29.626,28.94,52.647,59.533,52.647c33.084,0,60-26.916,60-60c0-7.648-1.456-15.148-4.248-22.158
	c3.665-0.222,7.564-0.342,11.748-0.342c4.142,0,7.5-3.358,7.5-7.5S426.142,188.703,422,188.703z M348.24,222.104
	c2.58-1.077,5.089-2.177,7.573-3.279c3.509,0.625,6.184,3.691,6.184,7.377c0,4.136-3.364,7.5-7.5,7.5s-7.5-3.364-7.5-7.5
	C346.997,224.736,347.434,223.321,348.24,222.104z M399.5,226.203c0,24.813-20.187,45-45,45c-22.701,0-41.519-16.9-44.558-38.798
	c8.446-1.027,15.665-2.601,22.126-4.494c0.877,11.611,10.597,20.792,22.429,20.792c12.407,0,22.5-10.093,22.5-22.5
	c0-5.383-1.903-10.33-5.068-14.206c6.654-2.516,13.897-4.699,22.676-6.194C397.817,212.098,399.5,219.065,399.5,226.203z"/>
<g>
</g>
<g>
</g>
<g>
</g>
<g>
</g>
<g>
</g>
<g>
</g>
<g>
</g>
<g>
</g>
<g>
</g>
<g>
</g>
<g>
</g>
<g>
</g>
<g>
</g>
<g>
</g>
<g>
</g>
</svg>
