<svg height="512pt" viewBox="0 0 512 512" width="512pt" xmlns="http://www.w3.org/2000/svg"><g fill-rule="evenodd"><path d="m50 256c0-113.769531 92.230469-206 206-206s206 92.230469 206 206-92.230469 206-206 206-206-92.230469-206-206zm452 0c0-135.863281-110.136719-246-246-246s-246 110.136719-246 246 110.136719 246 246 246 246-110.136719 246-246zm0 0" fill="#5fa4ff"/><path d="m256 50c-113.769531 0-206 92.230469-206 206s92.230469 206 206 206 206-92.230469 206-206-92.230469-206-206-206zm-166 206c0-91.679688 74.320312-166 166-166s166 74.320312 166 166-74.320312 166-166 166-166-74.320312-166-166zm0 0" fill="#e1e3e8"/><path d="m256 90c-91.679688 0-166 74.320312-166 166s74.320312 166 166 166 166-74.320312 166-166-74.320312-166-166-166zm-126 166c0-69.585938 56.410156-126 126-126 69.585938 0 126 56.414062 126 126s-56.414062 126-126 126c-69.589844 0-126-56.414062-126-126zm0 0" fill="#ff6977"/><path d="m256 130c-69.589844 0-126 56.414062-126 126s56.414062 126 126 126 126-56.414062 126-126-56.414062-126-126-126zm-29.835938 85.335938 29.835938-53.417969 29.832031 53.417969 60.023438 11.863281-41.585938 44.878906 7.261719 60.75-55.53125-25.675781-55.535156 25.679687 7.261718-60.75-41.582031-44.882812zm0 0" fill="#5fa4ff"/><path d="m256 161.917969-29.835938 53.417969-60.019531 11.863281 41.582031 44.882812-7.257812 60.75 55.53125-25.679687 55.53125 25.679687-7.261719-60.753906 41.585938-44.878906-60.023438-11.863281zm0 0" fill="#e1e3e8"/></g><path d="m437.019531 74.980469c-48.351562-48.351563-112.640625-74.980469-181.019531-74.980469-52.136719 0-102.316406 15.59375-145.113281 45.09375-4.546875 3.132812-5.691407 9.359375-2.554688 13.90625 3.132813 4.546875 9.363281 5.695312 13.90625 2.558594 39.445313-27.1875 85.699219-41.558594 133.761719-41.558594 130.128906 0 236 105.871094 236 236s-105.871094 236-236 236c-130.132812 0-236-105.871094-236-236 0-47.875 14.261719-93.972656 41.242188-133.304688 3.125-4.554687 1.964843-10.78125-2.585938-13.902343-4.554688-3.125-10.78125-1.96875-13.90625 2.585937-29.273438 42.679688-44.75 92.6875-44.75 144.621094 0 68.378906 26.628906 132.667969 74.980469 181.019531 48.351562 48.351563 112.640625 74.980469 181.019531 74.980469s132.667969-26.628906 181.019531-74.980469c48.351563-48.351562 74.980469-112.640625 74.980469-181.019531s-26.628906-132.667969-74.980469-181.019531zm0 0"/><path d="m424.449219 375.019531c4.65625 2.96875 10.839843 1.597657 13.808593-3.058593 22.074219-34.625 33.742188-74.726563 33.742188-115.960938 0-57.695312-22.46875-111.9375-63.265625-152.734375s-95.039063-63.265625-152.734375-63.265625-111.9375 22.46875-152.734375 63.265625-63.265625 95.039063-63.265625 152.734375 22.46875 111.9375 63.265625 152.734375 95.039063 63.265625 152.734375 63.265625c41.019531 0 80.9375-11.558594 115.445312-33.417969 4.664063-2.957031 6.050782-9.136719 3.09375-13.800781-2.957031-4.664062-9.132812-6.050781-13.800781-3.09375-31.296875 19.832031-67.515625 30.3125-104.738281 30.3125-108.074219 0-196-87.925781-196-196s87.925781-196 196-196 196 87.925781 196 196c0 37.417969-10.585938 73.800781-30.609375 105.210938-2.96875 4.65625-1.597656 10.839843 3.058594 13.808593zm0 0"/><path d="m256 80c-97.046875 0-176 78.953125-176 176s78.953125 176 176 176 176-78.953125 176-176-78.953125-176-176-176zm0 332c-86.019531 0-156-69.980469-156-156s69.980469-156 156-156 156 69.980469 156 156-69.980469 156-156 156zm0 0"/><path d="m256 120c-74.992188 0-136 61.007812-136 136s61.007812 136 136 136 136-61.007812 136-136-61.007812-136-136-136zm0 252c-63.964844 0-116-52.039062-116-116s52.039062-116 116-116 116 52.039062 116 116-52.039062 116-116 116zm0 0"/><path d="m355.363281 224.109375c-1.121093-3.445313-4.015625-6.015625-7.570312-6.71875l-55.484375-10.96875-27.578125-49.378906c-1.765625-3.164063-5.105469-5.125-8.730469-5.125s-6.964844 1.960937-8.730469 5.125l-27.578125 49.378906-55.484375 10.96875c-3.554687.703125-6.453125 3.273437-7.570312 6.71875-1.121094 3.449219-.289063 7.230469 2.171875 9.890625l38.441406 41.488281-6.710938 56.15625c-.429687 3.597657 1.121094 7.148438 4.050782 9.277344 2.929687 2.128906 6.785156 2.503906 10.074218.984375l51.335938-23.738281 51.332031 23.738281c1.339844.621094 2.773438.925781 4.199219.925781 2.074219 0 4.140625-.648437 5.878906-1.910156 2.929688-2.132813 4.480469-5.679687 4.050782-9.277344l-6.714844-56.160156 38.441406-41.488281c2.464844-2.65625 3.296875-6.4375 2.175781-9.886719zm-58.425781 41.171875c-1.996094 2.152344-2.945312 5.070312-2.597656 7.984375l5.136718 42.972656-39.28125-18.164062c-1.328124-.617188-2.761718-.921875-4.195312-.921875s-2.867188.304687-4.195312.921875l-39.28125 18.164062 5.132812-42.96875c.351562-2.914062-.597656-5.832031-2.59375-7.984375l-29.414062-31.746094 42.457031-8.394531c2.875-.570312 5.359375-2.375 6.789062-4.933593l21.105469-37.785157 21.101562 37.785157c1.429688 2.558593 3.914063 4.363281 6.792969 4.933593l42.453125 8.394531zm0 0"/><path d="m81.769531 92.167969c2.558594 0 5.121094-.976563 7.074219-2.929688 3.902344-3.90625 3.902344-10.238281 0-14.140625-3.90625-3.90625-10.238281-3.90625-14.144531 0l-.003907.003906c-3.90625 3.902344-3.902343 10.234376.003907 14.136719 1.949219 1.957031 4.507812 2.929688 7.070312 2.929688zm0 0"/><path d="m393.984375 395.054688-.007813.003906c-3.714843 4.085937-3.410156 10.40625.675782 14.121094 1.917968 1.742187 4.324218 2.601562 6.722656 2.601562 2.722656 0 5.433594-1.105469 7.40625-3.273438 3.714844-4.085937 3.414062-10.414062-.671875-14.128906s-10.410156-3.414062-14.125.675782zm0 0"/></svg>